<?xml version="1.0" standalone="no"?>
<svg xmlns:xlink="http://www.w3.org/1999/xlink" id="wave" style="transform:rotate(180deg); transition: 0.3s" viewBox="0 0 1440 100" version="1.1" xmlns="http://www.w3.org/2000/svg"><defs><linearGradient id="sw-gradient-0" x1="0" x2="0" y1="1" y2="0"><stop stop-color="rgba(255, 249, 234, 1)" offset="0%"/><stop stop-color="rgba(255, 249, 234, 1)" offset="100%"/></linearGradient></defs><path style="transform:translate(0, 0px); opacity:1" fill="url(#sw-gradient-0)" d="M0,20L34.3,20C68.6,20,137,20,206,16.7C274.3,13,343,7,411,16.7C480,27,549,53,617,53.3C685.7,53,754,27,823,26.7C891.4,27,960,53,1029,60C1097.1,67,1166,53,1234,50C1302.9,47,1371,53,1440,61.7C1508.6,70,1577,80,1646,78.3C1714.3,77,1783,63,1851,55C1920,47,1989,43,2057,35C2125.7,27,2194,13,2263,16.7C2331.4,20,2400,40,2469,46.7C2537.1,53,2606,47,2674,45C2742.9,43,2811,47,2880,40C2948.6,33,3017,17,3086,10C3154.3,3,3223,7,3291,10C3360,13,3429,17,3497,18.3C3565.7,20,3634,20,3703,23.3C3771.4,27,3840,33,3909,43.3C3977.1,53,4046,67,4114,63.3C4182.9,60,4251,40,4320,31.7C4388.6,23,4457,27,4526,26.7C4594.3,27,4663,23,4731,28.3C4800,33,4869,47,4903,53.3L4937.1,60L4937.1,100L4902.9,100C4868.6,100,4800,100,4731,100C4662.9,100,4594,100,4526,100C4457.1,100,4389,100,4320,100C4251.4,100,4183,100,4114,100C4045.7,100,3977,100,3909,100C3840,100,3771,100,3703,100C3634.3,100,3566,100,3497,100C3428.6,100,3360,100,3291,100C3222.9,100,3154,100,3086,100C3017.1,100,2949,100,2880,100C2811.4,100,2743,100,2674,100C2605.7,100,2537,100,2469,100C2400,100,2331,100,2263,100C2194.3,100,2126,100,2057,100C1988.6,100,1920,100,1851,100C1782.9,100,1714,100,1646,100C1577.1,100,1509,100,1440,100C1371.4,100,1303,100,1234,100C1165.7,100,1097,100,1029,100C960,100,891,100,823,100C754.3,100,686,100,617,100C548.6,100,480,100,411,100C342.9,100,274,100,206,100C137.1,100,69,100,34,100L0,100Z"/></svg>